<?xml version="1.0" standalone="no"?>
<!DOCTYPE svg PUBLIC "-//W3C//DTD SVG 20010904//EN"
 "http://www.w3.org/TR/2001/REC-SVG-20010904/DTD/svg10.dtd">
<svg version="1.0" xmlns="http://www.w3.org/2000/svg"
 width="308.000000pt" height="254.000000pt" viewBox="0 0 308.000000 254.000000"
 preserveAspectRatio="xMidYMid meet">
<metadata>
Created by potrace 1.16, written by Peter Selinger 2001-2019
</metadata>
<g transform="translate(0.000000,254.000000) scale(0.100000,-0.100000)"
fill="#000000" stroke="none">
<path d="M1622 2336 c-200 -76 -314 -302 -258 -511 70 -266 381 -396 622 -261
l42 23 243 -243 c241 -242 267 -262 297 -232 30 30 9 56 -230 295 l-242 242
31 43 c151 211 74 513 -162 629 -64 31 -78 34 -175 36 -90 2 -114 -1 -168 -21z
m302 -95 c208 -101 253 -391 84 -547 -73 -68 -129 -89 -233 -89 -103 0 -152
18 -227 84 -97 86 -135 241 -88 363 26 71 103 158 165 187 90 42 213 43 299 2z"/>
<path d="M638 913 l-3 -178 -32 -3 c-32 -3 -33 -2 -33 32 0 34 -2 36 -35 36
l-35 0 0 -50 c0 -71 21 -90 100 -90 51 0 65 4 85 25 25 24 25 26 25 215 l0
190 -35 0 -35 0 -2 -177z"/>
<path d="M764 1067 c-3 -14 -4 -103 -2 -197 3 -167 4 -172 27 -191 33 -27 129
-27 162 0 24 19 24 21 24 213 l0 193 -32 3 -33 3 -2 -178 -3 -178 -32 -3 -33
-3 -2 178 -3 178 -32 3 c-27 3 -33 -1 -39 -21z"/>
<path d="M1073 1075 c-37 -16 -46 -46 -41 -144 l3 -64 65 -22 65 -22 0 -44 c0
-39 -3 -44 -24 -47 -26 -4 -41 12 -41 46 0 19 -5 22 -35 22 -35 0 -35 0 -35
-45 0 -69 30 -95 110 -95 64 0 99 20 100 58 2 36 2 137 1 148 -1 6 -32 21 -71
33 l-70 22 0 38 c0 67 62 87 68 23 2 -17 6 -32 10 -33 62 -7 66 -4 64 49 -2
54 -10 70 -44 81 -41 15 -86 13 -125 -4z"/>
<path d="M1290 1056 c0 -32 3 -35 33 -38 l32 -3 3 -177 2 -178 35 0 35 0 0
180 0 180 35 0 c33 0 35 2 35 35 l0 35 -105 0 -105 0 0 -34z"/>
<path d="M1680 875 l0 -215 35 0 35 0 0 90 0 90 55 0 55 0 0 35 0 35 -55 0
-55 0 0 55 0 55 70 0 70 0 0 35 0 35 -105 0 -105 0 0 -215z"/>
<path d="M1947 1083 c-4 -3 -7 -100 -7 -215 l0 -208 35 0 35 0 0 215 0 215
-28 0 c-16 0 -32 -3 -35 -7z"/>
<path d="M2070 875 l0 -215 35 0 34 0 3 116 3 116 41 -113 41 -114 37 -3 36
-3 -2 213 -3 213 -32 3 c-39 4 -42 -4 -46 -132 l-2 -89 -39 112 -38 111 -34 0
-34 0 0 -215z"/>
<path d="M2350 876 l0 -216 85 0 c127 0 125 -3 125 213 0 213 2 210 -126 216
l-84 3 0 -216z m135 -1 l0 -140 -32 -3 -33 -3 0 139 c0 76 3 142 7 146 4 4 19
6 33 4 l25 -3 0 -140z"/>
<path d="M100 280 c0 -53 4 -90 10 -90 6 0 10 37 10 90 0 53 -4 90 -10 90 -6
0 -10 -37 -10 -90z"/>
<path d="M870 283 l0 -88 39 -3 c31 -2 43 2 55 20 34 48 6 113 -45 106 -26 -4
-29 -2 -29 24 0 15 -4 28 -10 28 -6 0 -10 -36 -10 -87z m86 -7 c11 -47 -15
-83 -51 -70 -10 4 -15 20 -15 43 0 44 5 51 36 51 17 0 25 -7 30 -24z"/>
<path d="M1220 280 c0 -53 4 -90 10 -90 6 0 10 37 10 90 0 53 -4 90 -10 90 -6
0 -10 -37 -10 -90z"/>
<path d="M1370 341 c0 -28 -2 -29 -33 -24 -50 8 -81 -46 -54 -97 11 -21 20
-25 60 -26 l47 -1 0 89 c0 52 -4 88 -10 88 -5 0 -10 -13 -10 -29z m-7 -62 c22
-35 -18 -92 -50 -70 -33 22 -18 95 18 89 12 -2 26 -10 32 -19z"/>
<path d="M1786 361 c-4 -7 -5 -15 -2 -18 9 -9 19 4 14 18 -4 11 -6 11 -12 0z"/>
<path d="M1990 283 l0 -88 39 -3 c48 -3 71 17 71 63 0 43 -24 68 -62 63 -25
-4 -28 -2 -28 24 0 15 -4 28 -10 28 -6 0 -10 -36 -10 -87z m88 -23 c3 -23 -2
-38 -14 -47 -27 -19 -54 1 -54 41 0 40 7 48 40 44 21 -2 26 -9 28 -38z"/>
<path d="M2207 343 c-14 -31 -11 -153 4 -153 5 0 9 24 9 54 0 47 3 55 23 61
l22 8 -23 4 c-28 5 -24 24 9 40 l24 13 -27 0 c-20 0 -31 -7 -41 -27z"/>
<path d="M771 328 c0 -28 2 -30 9 -13 12 28 12 45 0 45 -5 0 -10 -15 -9 -32z"/>
<path d="M810 330 c0 -16 5 -30 10 -30 6 0 10 14 10 30 0 17 -4 30 -10 30 -5
0 -10 -13 -10 -30z"/>
<path d="M1160 350 c0 -5 5 -10 10 -10 6 0 10 5 10 10 0 6 -4 10 -10 10 -5 0
-10 -4 -10 -10z"/>
<path d="M1426 333 c10 -40 14 -41 14 -5 0 18 -5 32 -10 32 -6 0 -8 -11 -4
-27z"/>
<path d="M1470 328 c0 -25 3 -29 10 -18 13 20 13 50 0 50 -5 0 -10 -15 -10
-32z"/>
<path d="M297 327 c-10 -15 -13 -27 -8 -27 6 0 11 -24 13 -52 3 -51 4 -53 33
-55 29 -3 29 -2 8 9 -19 9 -23 19 -23 55 0 32 4 43 15 43 8 0 15 5 15 10 0 6
-6 10 -14 10 -8 0 -16 8 -18 17 -2 14 -7 12 -21 -10z"/>
<path d="M176 304 c-21 -20 -21 -78 0 -98 17 -17 84 -22 84 -7 0 6 -17 11 -37
13 -27 2 -39 8 -41 21 -3 14 4 17 37 17 36 0 41 3 41 23 0 45 -52 64 -84 31z
m62 -21 c2 -9 -7 -13 -27 -13 -30 0 -39 9 -24 24 11 10 46 3 51 -11z"/>
<path d="M448 314 c-12 -11 -10 -82 2 -105 9 -15 20 -19 55 -17 l45 1 0 64 c0
35 -4 63 -10 63 -5 0 -10 -22 -10 -50 0 -37 -4 -52 -18 -59 -29 -16 -46 4 -52
59 -3 29 -8 48 -12 44z"/>
<path d="M603 313 c-27 -10 -14 -49 23 -66 31 -15 34 -20 23 -33 -8 -10 -21
-13 -36 -9 -13 3 -23 1 -23 -5 0 -18 68 -12 78 8 14 25 4 41 -35 57 -39 17
-36 35 8 35 16 0 29 5 29 10 0 10 -45 12 -67 3z"/>
<path d="M1010 266 c0 -64 12 -77 69 -74 l41 1 0 64 c0 35 -4 63 -10 63 -5 0
-10 -22 -10 -50 0 -40 -4 -51 -21 -60 -32 -18 -49 4 -49 61 0 27 -4 49 -10 49
-5 0 -10 -24 -10 -54z"/>
<path d="M1160 255 c0 -37 4 -65 10 -65 6 0 10 28 10 65 0 37 -4 65 -10 65 -6
0 -10 -28 -10 -65z"/>
<path d="M1600 310 c-11 -7 -5 -10 23 -10 24 0 37 -5 37 -13 0 -8 -17 -18 -37
-23 -33 -8 -38 -13 -38 -39 0 -29 1 -30 48 -30 l47 -1 0 51 c0 28 -5 56 -12
63 -14 14 -47 15 -68 2z m60 -75 c0 -20 -39 -40 -52 -27 -6 6 -8 18 -5 26 8
20 57 21 57 1z"/>
<path d="M1780 235 c0 -69 -3 -85 -15 -85 -8 0 -15 -4 -15 -10 0 -11 11 -13
34 -4 13 5 16 23 16 95 0 53 -4 89 -10 89 -6 0 -10 -35 -10 -85z"/>
<path d="M1856 304 c-9 -8 -16 -31 -16 -49 0 -39 22 -65 55 -65 33 0 55 26 55
65 0 39 -22 65 -55 65 -13 0 -31 -7 -39 -16z m72 -45 c4 -44 -17 -66 -47 -49
-15 7 -21 21 -21 44 0 40 7 48 40 44 21 -3 25 -9 28 -39z"/>
<path d="M2295 306 c-22 -16 -26 -76 -6 -100 17 -20 65 -21 85 0 9 8 16 30 16
48 0 56 -52 84 -95 52z m73 -48 c2 -29 -1 -39 -17 -48 -17 -8 -24 -7 -41 10
-23 23 -24 33 -9 61 7 14 19 19 37 17 23 -3 27 -8 30 -40z"/>
<path d="M2430 258 c0 -38 4 -68 9 -68 6 0 9 15 7 33 -5 45 9 77 34 77 11 0
20 5 20 10 0 14 -37 13 -46 -1 -4 -8 -9 -7 -15 2 -5 9 -9 -12 -9 -53z"/>
<path d="M2570 315 c0 -2 11 -33 24 -68 24 -65 21 -97 -9 -97 -8 0 -15 -4 -15
-10 0 -12 20 -13 38 -2 12 8 72 152 72 173 0 5 -4 9 -9 9 -4 0 -14 -20 -21
-45 -7 -25 -16 -48 -21 -50 -4 -3 -15 17 -24 45 -9 27 -21 50 -26 50 -5 0 -9
-2 -9 -5z"/>
<path d="M2717 302 c-38 -42 -10 -112 45 -112 33 0 52 24 52 65 0 18 -6 40
-13 49 -18 22 -64 20 -84 -2z m73 -22 c6 -12 8 -29 5 -39 -17 -56 -75 -45 -75
13 0 18 3 36 7 39 14 15 53 6 63 -13z"/>
<path d="M2850 266 c0 -64 11 -76 68 -73 l42 1 0 63 c0 35 -4 63 -10 63 -5 0
-10 -19 -10 -42 0 -48 -8 -65 -30 -68 -36 -5 -40 0 -40 55 0 30 -4 55 -10 55
-5 0 -10 -24 -10 -54z"/>
</g>
</svg>
